#N canvas 58 25 1440 847 12;
#X obj 162 193 list length;
#X floatatom 427 172 5 0 0 0 - - - 0;
#X obj 139 64 bng 20 250 50 0 empty empty empty 0 -10 0 12 #c6feff #000000 #000000;
#X obj 427 206 t f f;
#X obj 171 661 +, f 37;
#X floatatom 459 260 5 0 0 0 - - - 0;
#X obj 162 261 until;
#X obj 162 290 i;
#X obj 192 290 + 1;
#X obj 162 318 mod, f 11;
#X obj 162 226 t f f, f 11;
#X obj 162 408 list-idx, f 18;
#X obj 162 344 t b f, f 28;
#X obj 162 382 list append, f 15;
#X obj 162 163 t a a, f 15;
#X floatatom 171 690 5 0 0 0 - - - 0;
#X obj 426 141 + 60;
#X obj 459 231 mod 12;
#X obj 162 491 sel -1;
#X obj 162 463 expr if($f1 == $f2 \, $f3 \, -1);
#X obj 139 89 t b b b;
#X obj 139 545 f, f 9;
#X obj 139 604 t b f;
#X obj 139 579 expr if($f1 > -1 \, 0 \, -1);
#X msg 224 526 -1;
#X obj 162 131 list append;
#X text 236 24 scale;
#X text 214 692 MIDI Note;
#N canvas 324 349 450 278 (subpatch) 0;
#X array melody 16 float 3;
#A 0 93 103 76 62 79 98 98 76 105 106 94 81 89 79 79 74;
#X coords 0 127 16 0 400 140 1 0 0;
#X restore 704 34 graph;
#X obj 98 801 tabwrite melody;
#X msg 1113 35 \; melody write data.txt;
#X obj 197 743 f;
#X obj 226 742 + 1;
#X obj 197 772 mod 16;
#X obj 139 40 until;
#X msg 139 13 16;
#X obj 171 717 t f b;
#X obj 718 376 metro;
#X obj 718 339 tgl 19 0 empty empty empty 0 -10 0 12 #fcfcfc #000000 #000000 0 1;
#X floatatom 764 358 5 0 0 0 - - - 0;
#X obj 767 257 hsl 162 19 40 480 0 0 empty empty empty -2 -10 0 12 #fcfcfc #000000 #000000 0 1;
#X obj 718 434 f;
#X obj 752 433 + 1;
#X obj 718 463 mod 16;
#X floatatom 719 491 5 0 0 0 - - - 0;
#X obj 719 519 tabread melody;
#X floatatom 719 548 5 0 0 0 - - - 0;
#X obj 764 328 expr 60000 / $f1;
#X obj 764 284 i;
#X floatatom 764 305 5 0 0 0 - - - 0;
#X obj 718 402 bng 19 250 50 0 empty empty empty 0 -10 0 12 #fcfcfc #000000 #000000;
#X obj 720 603 makenote;
#X msg 720 577 \$1 100 500;
#X obj 720 632 noteout;
#X msg 236 51 0 2 4 5 7 9 11;
#X obj 706 176 hsl 400 10 0 15 0 0 empty index empty -2 -10 0 12 #fcfcfc #000000 #000000 0 1;
#X obj 759 491 s index;
#X obj 426 108 random 48;
#X connect 0 0 10 0;
#X connect 1 0 3 0;
#X connect 2 0 20 0;
#X connect 3 0 4 1;
#X connect 3 1 17 0;
#X connect 4 0 15 0;
#X connect 5 0 19 1;
#X connect 6 0 7 0;
#X connect 7 0 8 0;
#X connect 7 0 9 0;
#X connect 8 0 7 1;
#X connect 9 0 12 0;
#X connect 10 0 6 0;
#X connect 10 1 9 1;
#X connect 11 0 19 0;
#X connect 12 0 13 0;
#X connect 12 1 11 1;
#X connect 12 1 19 2;
#X connect 13 0 11 0;
#X connect 14 0 0 0;
#X connect 14 1 13 1;
#X connect 15 0 36 0;
#X connect 16 0 1 0;
#X connect 17 0 5 0;
#X connect 18 1 21 1;
#X connect 19 0 18 0;
#X connect 20 0 21 0;
#X connect 20 1 25 0;
#X connect 20 2 57 0;
#X connect 21 0 23 0;
#X connect 22 0 24 0;
#X connect 22 1 4 0;
#X connect 23 0 22 0;
#X connect 24 0 21 1;
#X connect 25 0 14 0;
#X connect 31 0 32 0;
#X connect 31 0 33 0;
#X connect 32 0 31 1;
#X connect 33 0 29 1;
#X connect 34 0 2 0;
#X connect 35 0 34 0;
#X connect 36 0 29 0;
#X connect 36 1 31 0;
#X connect 37 0 50 0;
#X connect 38 0 37 0;
#X connect 39 0 37 1;
#X connect 40 0 48 0;
#X connect 41 0 42 0;
#X connect 41 0 43 0;
#X connect 42 0 41 1;
#X connect 43 0 44 0;
#X connect 44 0 45 0;
#X connect 44 0 56 0;
#X connect 45 0 46 0;
#X connect 46 0 52 0;
#X connect 47 0 39 0;
#X connect 48 0 49 0;
#X connect 49 0 47 0;
#X connect 50 0 41 0;
#X connect 51 0 53 0;
#X connect 51 1 53 1;
#X connect 52 0 51 0;
#X connect 54 0 25 1;
#X connect 57 0 16 0;
