#N canvas 4 25 1028 647 12;
#X obj 403 352 readsf~, f 13;
#X obj 21 57 adc~;
#X obj 236 208 writesf~;
#X msg 403 189 stop;
#X obj 236 81 bng 15 250 50 0 empty empty Start\ Recording 17 7 0 10 #c6feff #000000 #000000;
#X obj 694 451 writesf~;
#X msg 651 431 stop;
#X obj 491 544 readsf~;
#X obj 537 572 bng 15 250 50 0 empty empty empty 17 7 0 10 #fcfcfc #000000 #000000;
#X msg 694 391 open record-B.wav \, start;
#X msg 236 100 open record-A.wav \, start;
#X msg 403 321 open record-A.wav \, start;
#X msg 491 513 open record-B.wav \, start;
#X obj 241 180 r~ audio.input;
#X obj 21 82 s~ audio.input;
#X obj 699 418 r~ audio.input;
#X obj 694 209 bng 15 250 50 0 empty empty empty 17 7 0 10 #fcfcfc #000000 #000000;
#X obj 537 593 s stop.Rec.A;
#X obj 403 146 r stop.Rec.A;
#X obj 403 169 bng 15 250 50 0 empty empty Stop\ Recording 17 7 0 10 #ffc7c6 #000000 #000000;
#X obj 379 431 s start.Rec.A;
#X obj 491 416 bng 15 250 50 0 empty empty empty 17 7 0 10 #fcfcfc #000000 #000000;
#X obj 236 56 r start.Rec.A;
#X obj 403 381 throw~ audio;
#X obj 491 623 throw~ audio;
#X obj 20 172 dac~;
#X obj 21 137 catch~ audio;
#X msg 30 566 \; pd dsp 1;
#X obj 30 541 loadbang;
#X obj 403 262 bng 15 250 50 0 empty empty empty 17 7 0 10 #fcfcfc #000000 #000000;
#X obj 403 292 del 5;
#X obj 491 484 del 5;
#X connect 0 0 23 0;
#X connect 0 1 21 0;
#X connect 1 0 14 0;
#X connect 3 0 2 0;
#X connect 3 0 16 0;
#X connect 3 0 29 0;
#X connect 4 0 10 0;
#X connect 6 0 5 0;
#X connect 7 0 24 0;
#X connect 7 1 8 0;
#X connect 8 0 17 0;
#X connect 9 0 5 0;
#X connect 10 0 2 0;
#X connect 11 0 0 0;
#X connect 12 0 7 0;
#X connect 13 0 2 0;
#X connect 15 0 5 0;
#X connect 16 0 9 0;
#X connect 18 0 19 0;
#X connect 19 0 3 0;
#X connect 21 0 6 0;
#X connect 21 0 20 0;
#X connect 21 0 31 0;
#X connect 22 0 4 0;
#X connect 26 0 25 0;
#X connect 26 0 25 1;
#X connect 28 0 27 0;
#X connect 29 0 30 0;
#X connect 30 0 11 0;
#X connect 31 0 12 0;
